<svg xmlns="http://www.w3.org/2000/svg" width="35.872" height="40.023" viewBox="0 0 35.872 40.023">
  <path id="Caminho_1" data-name="Caminho 1" d="M66.945,32.715c-4.253-1.921-4.415-10.165-4.418-10.373V16.81A12.873,12.873,0,0,0,54.651,4.96a4.978,4.978,0,0,0-9.956,0A12.873,12.873,0,0,0,36.82,16.81v5.531c0,.208-.165,8.453-4.418,10.373a1.129,1.129,0,0,0,.465,2.157H43.649a6.343,6.343,0,0,0,1.675,3.263,5.955,5.955,0,0,0,8.7,0A6.342,6.342,0,0,0,55.7,34.872H66.48a1.129,1.129,0,0,0,.465-2.157ZM49.673,2.257a2.726,2.726,0,0,1,2.614,1.967,12.909,12.909,0,0,0-5.228,0A2.726,2.726,0,0,1,49.673,2.257Zm0,35.508a3.959,3.959,0,0,1-3.709-2.894h7.417A3.959,3.959,0,0,1,49.673,37.766Z" transform="translate(-31.737)"/>
</svg>
