<?xml version="1.0" standalone="no"?>
<!DOCTYPE svg PUBLIC "-//W3C//DTD SVG 20010904//EN"
 "http://www.w3.org/TR/2001/REC-SVG-20010904/DTD/svg10.dtd">
<svg version="1.0" xmlns="http://www.w3.org/2000/svg"
 width="920.000000pt" height="920.000000pt" viewBox="0 0 920.000000 920.000000"
 preserveAspectRatio="xMidYMid meet">

<g transform="translate(0.000000,920.000000) scale(0.100000,-0.100000)"
fill="#4f4f4f" stroke="none">
<path d="M4211 8815 c-839 -84 -1600 -391 -2251 -910 -571 -455 -1026 -1069
-1293 -1745 -213 -539 -306 -1061 -294 -1645 6 -270 20 -423 62 -660 184
-1039 765 -1987 1611 -2627 623 -471 1344 -755 2134 -840 186 -19 706 -17 885
5 604 74 1145 251 1640 537 1086 626 1843 1702 2060 2925 42 237 56 390 62
660 12 590 -84 1123 -303 1668 -382 953 -1116 1744 -2047 2207 -442 220 -882
351 -1397 416 -179 22 -681 27 -869 9z m564 -381 c-236 -203 -341 -312 -480
-499 -153 -205 -255 -392 -344 -633 l-47 -127 -59 -2 c-148 -6 -435 -37 -594
-64 -782 -130 -1508 -462 -2114 -966 -61 -51 -113 -91 -115 -89 -1 2 18 50 43
107 516 1166 1571 2002 2825 2237 238 45 396 59 680 60 l235 1 -30 -25z m1944
-608 c308 -201 607 -468 845 -752 480 -574 772 -1244 872 -2004 14 -102 18
-206 19 -425 l0 -289 -146 -37 c-80 -21 -212 -47 -295 -59 -148 -21 -484 -39
-484 -26 0 21 -24 167 -47 281 -95 487 -337 984 -676 1391 -360 432 -866 825
-1419 1100 -65 32 -118 62 -118 67 0 15 213 228 310 309 202 170 512 350 735
428 96 34 258 78 289 79 10 1 62 -28 115 -63z m-1949 -1813 c510 -201 962
-586 1216 -1034 105 -185 196 -419 244 -625 31 -133 36 -126 -72 -97 -746 202
-1278 720 -1488 1450 -27 95 -70 308 -70 350 0 20 23 14 170 -44z m-1240 -384
c0 -33 48 -241 87 -374 78 -270 235 -609 390 -842 288 -435 682 -778 1146
-998 199 -94 471 -192 654 -235 46 -10 52 -15 48 -33 -215 -985 -572 -1767
-1053 -2310 l-87 -99 -240 5 c-316 8 -512 34 -827 113 -187 47 -276 75 -468
151 -908 359 -1642 1044 -2066 1928 -68 144 -145 329 -159 388 -13 52 193 434
382 704 473 680 1125 1208 1858 1506 115 47 306 116 323 116 6 1 12 -9 12 -20z
m4518 -2767 c-183 -360 -412 -679 -685 -954 -64 -65 -118 -116 -119 -115 -2 2
19 77 47 168 66 216 150 559 194 792 19 103 35 190 35 192 0 3 22 5 48 5 74 0
345 29 452 49 52 9 97 16 99 14 2 -1 -30 -69 -71 -151z"/>
</g>
</svg>
