<?xml version="1.0" standalone="no"?>
<!DOCTYPE svg PUBLIC "-//W3C//DTD SVG 20010904//EN"
 "http://www.w3.org/TR/2001/REC-SVG-20010904/DTD/svg10.dtd">
<svg version="1.0" xmlns="http://www.w3.org/2000/svg"
 width="512.000000pt" height="512.000000pt" viewBox="0 0 512.000000 512.000000"
 preserveAspectRatio="xMidYMid meet">

<g transform="translate(0.000000,512.000000) scale(0.100000,-0.100000)"
fill="#000000" stroke="none">
<path d="M0 2550 l0 -1880 670 0 670 0 2 660 3 661 667 -661 666 -660 551 0
551 0 0 550 0 550 670 0 670 0 0 665 0 665 -670 0 -670 0 0 665 0 665 -670 0
-670 0 0 -662 0 -663 -663 663 -662 662 -558 0 -557 0 0 -1880z"/>
</g>
</svg>
