<?xml version="1.0" standalone="no"?>
<!DOCTYPE svg PUBLIC "-//W3C//DTD SVG 20010904//EN"
 "http://www.w3.org/TR/2001/REC-SVG-20010904/DTD/svg10.dtd">
<svg version="1.0" xmlns="http://www.w3.org/2000/svg"
 width="256.000000pt" height="256.000000pt" viewBox="0 0 256.000000 256.000000"
 preserveAspectRatio="xMidYMid meet">

<g transform="translate(0.000000,256.000000) scale(0.100000,-0.100000)"
fill="#000000" stroke="none">
<path d="M622 2178 l3 -163 802 -3 803 -2 2 -628 3 -627 163 -3 162 -2 0 795
0 795 -970 0 -970 0 2 -162z"/>
<path d="M0 1015 l0 -795 1010 0 1010 0 0 795 0 795 -1010 0 -1010 0 0 -795z
m1700 0 l0 -465 -685 0 -685 0 0 465 0 465 685 0 685 0 0 -465z"/>
</g>
</svg>
