<?xml version="1.0" encoding="utf-8"?>
<!-- Generator: Adobe Illustrator 26.0.3, SVG Export Plug-In . SVG Version: 6.00 Build 0)  -->
<svg version="1.0" id="Layer_1" xmlns="http://www.w3.org/2000/svg" xmlns:xlink="http://www.w3.org/1999/xlink" x="0px" y="0px"
	 viewBox="0 0 248 155" style="enable-background:new 0 0 248 155;" xml:space="preserve">
<style type="text/css">
	.st0{fill:#4f4f4f;}
	.st1{fill:none;}
</style>
<path class="st0" d="M63.4,48h8.8v58h-8.9v-3.2c-2.8,2.8-6.7,4.3-10.6,4.2c-11,0-18.7-9.1-18.7-22.1s7.6-21.7,18.5-21.7
	c4-0.1,7.9,1.4,10.9,4.1V48z M62.4,92.9c0.6-1.5,0.9-3.7,0.9-7.2c0-4.5-0.2-6.7-0.7-8.3c-1-3.2-4.8-5.7-8.7-5.7
	c-6.5,0-10.5,5.2-10.5,13.5c0,8,4,13.2,10.3,13.2C57.6,98.4,61.1,96.1,62.4,92.9L62.4,92.9z"/>
<path class="st0" d="M111.4,91.9c0,5.7,0.4,6.6,4.5,8.2l-4.5,6.9c-4-0.5-6.3-2.3-7.2-5.2c-2.7,3.4-6.9,5.4-11.3,5.2
	c-9,0-15.9-6-15.9-13.9c0-6.7,4.2-10.6,13.2-12.4c2.8-0.5,5.2-0.8,12.3-1.5v-1.3c-0.1-4.7-2.3-6.7-7.7-6.7c-4.1,0-7,0.7-12.8,3.2
	l-3.7-7.1c5.4-2.8,11.4-4.3,17.5-4.3c5.8,0,10.5,1.5,13,4.2c2.2,2.3,2.7,4.2,2.7,9.2V91.9z M102.4,92.7v-6.3
	c-3.4,0.3-6.7,0.7-10,1.4c-4.1,1-6,2.6-6,5.4c0,3.4,3.6,6.2,7.8,6.2c2.4,0,4.7-0.9,6.6-2.4C102.1,96.1,102.5,95.2,102.4,92.7
	L102.4,92.7z"/>
<path class="st0" d="M131.3,91.6c0,5.2,1,6.4,5.4,6.4c1.7,0.2,3.3,0.2,5,0v7.4c-2.5,0.8-5.2,1.1-7.8,1.1c-8.3,0-11.5-3.4-11.5-12
	V71.7H116V64h6.4V51.1l8.9-3.2V64h10.5v7.6h-10.5V91.6z"/>
<path class="st0" d="M161.3,91.6c0,5.2,1.1,6.4,5.4,6.4c1.7,0.2,3.3,0.2,5,0v7.4c-2.5,0.8-5.2,1.1-7.8,1.1c-8.3,0-11.5-3.4-11.5-12
	V71.7H146V64h6.4V51.1l8.9-3.2V64h10.5v7.6h-10.5V91.6z"/>
<path class="st0" d="M193.4,63c12.2,0,20.6,9.1,20.6,22.2c0,12.8-8.2,21.9-19.9,21.9c-12,0-20.2-9-20.2-21.9
	C173.9,71.9,181.8,63,193.4,63z M193.8,98.4c6.3,0,10.6-5.4,10.6-13.4c0-8.2-4.2-13.5-10.6-13.5c-6.5,0-10.9,5.5-10.9,13.5
	S187.3,98.4,193.8,98.4z"/>
<rect x="26" y="41" class="st1" width="196" height="73"/>
</svg>
