<?xml version="1.0" standalone="no"?>
<!DOCTYPE svg PUBLIC "-//W3C//DTD SVG 20010904//EN"
 "http://www.w3.org/TR/2001/REC-SVG-20010904/DTD/svg10.dtd">
<svg version="1.0" xmlns="http://www.w3.org/2000/svg"
 width="512.000000pt" height="512.000000pt" viewBox="0 0 512.000000 512.000000"
 preserveAspectRatio="xMidYMid meet">

<g transform="translate(0.000000,512.000000) scale(0.100000,-0.100000)"
fill="#4f4f4f" stroke="none">
<path d="M2226 5099 c-551 -30 -1160 -145 -1699 -321 l-158 -52 6 -95 c3 -53
23 -643 45 -1311 29 -873 44 -1245 56 -1320 41 -280 211 -626 442 -900 160
-191 387 -395 617 -555 230 -161 597 -358 888 -477 l137 -57 138 57 c290 119
657 316 887 477 230 160 457 364 617 555 231 274 401 620 442 900 12 75 27
447 56 1320 22 668 42 1258 45 1311 l6 95 -158 52 c-768 251 -1596 363 -2367
321z m889 -473 c317 -31 644 -85 905 -151 116 -29 348 -100 367 -113 20 -12
-40 -2065 -63 -2177 -53 -261 -193 -545 -394 -800 -83 -105 -291 -311 -410
-406 -248 -198 -565 -388 -848 -509 l-104 -44 -116 58 c-680 337 -1192 732
-1452 1120 -123 184 -180 346 -186 536 -15 400 -64 2050 -64 2126 l0 92 48 20
c293 126 791 229 1277 266 138 10 880 -3 1040 -18z"/>
<path d="M1483 3830 c-142 -71 -222 -226 -223 -427 l0 -73 325 0 325 0 0 265
0 265 -183 0 -184 0 -60 -30z"/>
<path d="M2160 3595 l0 -265 380 0 380 0 0 265 0 265 -380 0 -380 0 0 -265z"/>
<path d="M3210 3595 l0 -265 325 0 325 0 0 73 c-1 208 -80 360 -223 428 -61
29 -64 29 -244 29 l-183 0 0 -265z"/>
<path d="M1260 2880 l0 -200 325 0 325 0 0 200 0 200 -325 0 -325 0 0 -200z"/>
<path d="M3210 2880 l0 -200 325 0 325 0 0 200 0 200 -325 0 -325 0 0 -200z"/>
<path d="M1270 2335 c0 -51 5 -118 11 -147 15 -71 61 -159 105 -204 64 -63 85
-68 317 -72 l207 -4 0 261 0 261 -320 0 -320 0 0 -95z"/>
<path d="M2160 2170 l0 -260 380 0 380 0 0 260 0 260 -380 0 -380 0 0 -260z"/>
<path d="M3210 2170 l0 -260 199 0 c116 0 212 4 228 11 85 31 160 120 193 228
11 34 23 110 26 171 l7 110 -326 0 -327 0 0 -260z"/>
</g>
</svg>
