<?xml version="1.0" standalone="no"?>
<!DOCTYPE svg PUBLIC "-//W3C//DTD SVG 20010904//EN"
 "http://www.w3.org/TR/2001/REC-SVG-20010904/DTD/svg10.dtd">
<svg version="1.0" xmlns="http://www.w3.org/2000/svg"
 width="900.000000pt" height="920.000000pt" viewBox="0 0 900.000000 920.000000"
 preserveAspectRatio="xMidYMid meet">

<g transform="translate(0.000000,920.000000) scale(0.100000,-0.100000)"
fill="#4f4f4f4f" stroke="none">
<path d="M1620 8489 c0 -5 5 -7 10 -4 6 3 10 8 10 11 0 2 -4 4 -10 4 -5 0 -10
-5 -10 -11z"/>
<path d="M1575 8483 c-25 -7 -64 -33 -48 -33 7 0 15 5 19 11 3 6 17 9 30 6 16
-3 24 0 24 9 0 8 -1 13 -2 13 -2 -1 -12 -4 -23 -6z"/>
<path d="M1585 8440 c3 -5 8 -10 11 -10 2 0 4 5 4 10 0 6 -5 10 -11 10 -5 0
-7 -4 -4 -10z"/>
<path d="M1515 8431 c-3 -6 5 -15 17 -21 21 -10 22 -10 5 4 -18 14 -18 14 0
19 15 4 16 5 1 6 -9 0 -19 -3 -23 -8z"/>
<path d="M1388 8423 c-10 -2 -18 -8 -18 -11 0 -4 -14 -8 -31 -9 -17 -1 -37 -7
-44 -13 -6 -5 -16 -6 -21 -2 -4 4 -3 0 4 -10 10 -12 10 -18 1 -24 -7 -4 -9 -3
-6 3 4 6 0 13 -8 17 -19 7 -47 -3 -40 -15 3 -4 -4 -6 -15 -4 -25 5 -52 -4 -45
-15 3 -5 -3 -6 -12 -4 -21 6 -137 -39 -127 -48 3 -4 -4 -4 -16 -1 l-22 6 6
-134 c4 -74 15 -429 26 -789 75 -2495 111 -3606 120 -3680 76 -604 436 -1301
955 -1848 250 -264 430 -426 712 -638 469 -354 1009 -658 1648 -928 l170 -72
190 81 c862 370 1576 815 2084 1300 205 196 401 409 518 564 398 527 635 1066
693 1580 12 108 17 578 6 588 -5 4 -7 -13 -5 -39 5 -55 -2 -53 -18 5 -7 26
-11 34 -12 20 -1 -13 -5 -23 -11 -23 -22 0 -100 45 -105 61 -7 22 -36 33 -46
18 -5 -8 -15 -4 -32 14 -25 28 -47 35 -47 16 0 -5 -5 -7 -11 -3 -8 4 -7 9 2
15 10 6 9 10 -6 15 -11 4 -26 16 -33 26 -9 12 -21 17 -32 13 -18 -6 -50 17
-50 36 0 5 -6 9 -14 9 -8 0 -16 3 -18 8 -1 4 -20 15 -40 24 l-37 17 -5 -42
c-3 -23 -8 -142 -11 -264 -4 -184 -10 -240 -29 -325 -114 -496 -315 -915 -640
-1338 -493 -641 -1308 -1247 -2169 -1614 l-108 -46 -167 85 c-743 376 -1345
774 -1817 1204 -185 168 -426 435 -538 595 -188 271 -296 492 -359 735 -29
113 -30 124 -39 461 -8 349 -80 2692 -99 3225 -5 160 -10 322 -10 361 l0 71
83 35 c45 19 116 48 157 64 41 16 78 32 81 37 3 4 10 7 15 6 16 -5 74 12 74
21 0 5 7 7 15 4 8 -4 15 -1 15 5 0 6 3 10 8 10 21 -4 32 2 26 14 -6 9 -5 9 7
0 12 -10 21 -9 43 2 15 8 32 13 36 10 5 -3 11 -1 15 5 4 6 11 8 16 5 5 -4 9
-1 9 5 0 6 6 10 13 9 6 0 23 2 35 6 18 6 20 10 10 16 -18 12 -31 11 -23 -1 3
-5 2 -10 -4 -10 -5 0 -13 5 -16 10 -4 6 -19 9 -33 8 -20 -2 -28 2 -30 17 -2
13 -22 29 -58 45 -30 14 -57 32 -59 41 -6 17 -46 39 -70 39 -8 0 -15 5 -15 10
0 6 -9 10 -20 10 -11 0 -20 4 -20 9 0 5 -8 11 -17 15 -25 8 -57 29 -66 44 -4
6 -15 12 -23 12 -8 0 -17 7 -20 15 -4 8 -15 15 -26 15 -10 0 -29 11 -42 25
-13 14 -33 25 -44 25 -12 0 -28 10 -36 21 -20 29 -71 59 -101 59 -18 0 -25 5
-25 20 0 11 -6 20 -13 20 -20 0 -97 53 -91 62 5 8 0 9 -28 1z m776 -519 c24
-4 31 -12 22 -21 -4 -4 -11 -1 -16 7 -9 13 -10 13 -10 0 0 -10 -3 -11 -8 -4
-4 6 -16 16 -27 23 l-20 13 20 -7 c11 -4 28 -8 39 -11z m-29 -34 c-3 -5 -12
-10 -18 -10 -7 0 -6 4 3 10 19 12 23 12 15 0z m5952 -3622 c-3 -7 -5 -2 -5 12
0 14 2 19 5 13 2 -7 2 -19 0 -25z"/>
<path d="M1436 8421 c-4 -5 4 -7 16 -4 19 4 20 3 8 -7 -10 -8 -11 -10 -2 -8 8
2 13 8 13 13 0 14 -28 18 -35 6z"/>
<path d="M1565 8420 c3 -5 14 -10 23 -10 15 0 15 2 2 10 -20 13 -33 13 -25 0z"/>
<path d="M2471 7971 c-11 -7 -9 -10 8 -16 24 -7 44 2 36 16 -8 11 -26 11 -44
0z m36 -7 c-3 -3 -12 -4 -19 -1 -8 3 -5 6 6 6 11 1 17 -2 13 -5z"/>
<path d="M2420 7940 c-9 -6 -10 -10 -3 -10 6 0 15 5 18 10 8 12 4 12 -15 0z"/>
<path d="M2920 6593 c-86 -14 -195 -64 -259 -118 -136 -113 -191 -262 -191
-514 l0 -141 585 0 585 0 0 390 0 390 -347 -1 c-192 -1 -359 -4 -373 -6z"/>
<path d="M4040 6208 l0 -388 586 0 587 0 -5 115 c-6 125 -14 145 -59 145 -21
0 -29 5 -29 18 0 11 -20 26 -55 42 -31 14 -57 32 -60 40 -6 17 -82 60 -107 60
-10 0 -18 4 -18 9 0 5 -8 11 -17 15 -10 3 -25 10 -33 15 -8 5 -27 12 -41 15
-18 4 -29 14 -33 31 -4 14 -12 25 -18 25 -25 0 -129 56 -134 72 -3 10 -23 22
-45 28 -21 6 -39 15 -39 20 0 6 -9 10 -20 10 -11 0 -20 6 -20 14 0 7 -8 16
-17 20 -20 6 -55 27 -63 37 -3 4 -21 10 -40 14 -33 8 -34 9 -10 15 41 11 -74
22 -200 19 l-110 -2 0 -389z m277 366 c-3 -3 -12 -4 -19 -1 -8 3 -5 6 6 6 11
1 17 -2 13 -5z"/>
<path d="M4480 6590 l-85 -5 87 -5 c47 -3 84 -2 82 2 -2 3 4 9 13 11 21 5 17
5 -97 -3z"/>
<path d="M4615 6570 c3 -5 8 -10 11 -10 2 0 4 5 4 10 0 6 -5 10 -11 10 -5 0
-7 -4 -4 -10z"/>
<path d="M4728 6563 c7 -3 16 -2 19 1 4 3 -2 6 -13 5 -11 0 -14 -3 -6 -6z"/>
<path d="M4690 6490 c0 -5 7 -10 15 -10 8 0 15 5 15 10 0 6 -7 10 -15 10 -8 0
-15 -4 -15 -10z"/>
<path d="M5641 5934 c0 -11 3 -14 6 -6 3 7 2 16 -1 19 -3 4 -6 -2 -5 -13z"/>
<path d="M5785 5830 c-19 -8 -19 -9 2 -9 12 -1 25 4 28 9 7 12 -2 12 -30 0z"/>
<path d="M2470 5048 l0 -388 585 0 585 0 0 385 0 385 -585 2 -585 3 0 -387z"/>
<path d="M5620 5045 l0 -385 585 0 585 0 -1 188 c0 103 -4 205 -8 227 -7 32
-9 34 -10 13 -1 -33 -16 -37 -24 -7 -3 12 -10 18 -16 14 -6 -3 -11 -1 -11 5 0
6 -11 15 -25 20 -14 5 -25 14 -25 20 0 5 -9 10 -20 10 -12 0 -31 10 -43 23
-12 12 -35 29 -52 37 -16 8 -33 20 -38 27 -11 17 -67 43 -94 43 -16 0 -23 6
-23 19 0 12 -9 21 -25 25 -14 4 -35 16 -46 27 -14 14 -40 23 -77 27 l-57 7 65
7 c38 3 -3 5 -100 4 -100 -2 -145 0 -115 5 28 4 95 8 150 10 203 4 1 17 -292
18 l-283 1 0 -385z"/>
<path d="M6358 5413 c23 -2 61 -2 85 0 23 2 4 4 -43 4 -47 0 -66 -2 -42 -4z"/>
<path d="M6445 5390 c28 -5 66 -8 85 -8 28 1 25 2 -15 8 -27 5 -66 8 -85 8
-28 -1 -25 -2 15 -8z"/>
<path d="M6773 5180 c0 -36 2 -50 4 -32 2 17 2 47 0 65 -2 17 -4 3 -4 -33z"/>
<path d="M8108 4413 c-2 -5 -1 -26 3 -48 l7 -40 -1 48 c-1 47 -2 54 -9 40z"/>
<path d="M8081 4344 c0 -11 3 -14 6 -6 3 7 2 16 -1 19 -3 4 -6 -2 -5 -13z"/>
<path d="M2470 4132 c0 -88 5 -136 21 -192 53 -194 169 -340 329 -416 100 -47
158 -54 503 -54 l317 0 0 390 0 390 -585 0 -585 0 0 -118z"/>
<path d="M4039 3888 c-1 -200 -2 -374 -3 -388 l-1 -25 593 -3 592 -2 0 390 0
390 -590 0 -590 0 -1 -362z"/>
<path d="M5620 3855 l0 -385 314 0 c235 0 334 4 391 15 170 32 327 145 399
287 48 97 66 185 66 341 l0 127 -585 0 -585 0 0 -385z"/>
</g>
</svg>
