<svg xmlns="http://www.w3.org/2000/svg" width="180.045" height="214.271" viewBox="0 0 180.045 214.271">
  <g id="Grupo_1" data-name="Grupo 1" transform="translate(18 -39)">
    <g id="security-svgrepo-com" transform="translate(-35.112 39)">
      <path id="Caminho_1" data-name="Caminho 1" d="M196.926,55.171c-.11-5.785-.215-11.25-.215-16.537a7.5,7.5,0,0,0-7.5-7.5c-32.075,0-56.5-9.218-76.852-29.01a7.5,7.5,0,0,0-10.457,0c-20.354,19.792-44.771,29.01-76.844,29.01a7.5,7.5,0,0,0-7.5,7.5c0,5.288-.1,10.755-.215,16.541-1.028,53.836-2.436,127.567,87.331,158.682a7.492,7.492,0,0,0,4.912,0C199.36,182.741,197.954,109.008,196.926,55.171ZM107.131,198.812C30.144,170.845,31.308,109.58,32.341,55.461c.062-3.248.122-6.4.164-9.482,30.04-1.268,54.062-10.371,74.626-28.285,20.566,17.914,44.592,27.018,74.634,28.285.042,3.085.1,6.231.164,9.477C182.961,109.577,184.124,170.844,107.131,198.812Z"/>
      <path id="Caminho_2" data-name="Caminho 2" d="M132.958,81.082l-36.2,36.2L81.312,101.832a7.5,7.5,0,1,0-10.606,10.607l20.75,20.75a7.5,7.5,0,0,0,10.606,0l41.5-41.5a7.5,7.5,0,1,0-10.6-10.607Z"/>
    </g>
  </g>
</svg>
