<?xml version="1.0" standalone="no"?>
<!DOCTYPE svg PUBLIC "-//W3C//DTD SVG 20010904//EN"
 "http://www.w3.org/TR/2001/REC-SVG-20010904/DTD/svg10.dtd">
<svg version="1.0" xmlns="http://www.w3.org/2000/svg"
 width="360.000000pt" height="418.000000pt" viewBox="0 0 360.000000 418.000000"
 preserveAspectRatio="xMidYMid meet">

<g transform="translate(0.000000,418.000000) scale(0.100000,-0.100000)"
fill="#000000" stroke="none">
<path d="M947 4118 c-102 -183 -150 -385 -128 -542 23 -163 90 -300 213 -431
l73 -79 -95 69 c-52 38 -122 89 -155 113 -74 54 -153 95 -227 117 -60 17 -258
46 -270 39 -11 -7 50 -172 97 -261 78 -148 180 -262 312 -347 115 -74 248
-125 443 -170 58 -14 93 -25 79 -25 -39 -1 -195 32 -359 77 -80 22 -172 46
-205 53 -75 16 -235 16 -295 0 -54 -14 -150 -51 -150 -58 0 -30 152 -188 234
-243 107 -72 283 -129 466 -151 88 -11 294 -8 380 6 l35 5 -30 -11 c-18 -7
-145 -14 -315 -18 -276 -7 -287 -8 -365 -35 -97 -33 -188 -86 -292 -168 l-78
-62 58 -18 c186 -57 479 -69 697 -30 94 17 251 59 355 96 11 4 4 -2 -15 -12
-19 -11 -109 -45 -200 -77 -185 -64 -252 -95 -326 -151 -76 -58 -140 -139
-159 -203 l-7 -24 98 6 c171 9 405 102 592 233 42 30 60 39 39 21 -39 -34
-137 -96 -286 -183 -93 -55 -174 -122 -196 -164 -20 -38 -36 -115 -29 -135 9
-22 59 -13 182 30 123 44 227 111 337 215 51 49 76 68 58 45 -17 -22 -77 -85
-133 -140 -117 -115 -138 -151 -147 -240 -7 -75 -7 -75 91 -50 143 37 316 171
423 327 84 123 86 128 74 222 -11 83 -3 184 20 255 13 40 29 25 29 -27 0 -55
30 -182 64 -274 47 -124 118 -236 214 -339 l84 -89 -43 15 c-106 38 -210 119
-274 215 l-47 71 -24 -52 c-72 -155 -244 -321 -432 -420 l-64 -33 89 -22 c125
-31 201 -59 332 -120 376 -178 600 -449 601 -729 0 -73 10 -64 44 38 46 139
59 228 53 361 -4 104 -9 133 -37 206 -54 143 -69 208 -69 305 -1 114 19 198
69 293 l39 75 -39 51 c-89 118 -158 279 -181 420 -13 82 -8 216 11 279 l11 38
34 -44 c43 -57 136 -119 217 -146 80 -26 210 -44 264 -36 l41 6 6 -98 c10
-189 91 -361 208 -444 l30 -21 -36 65 c-80 146 -115 305 -115 527 l0 147 -132
6 c-147 5 -224 24 -316 78 -30 17 -52 32 -50 33 1 2 66 -10 143 -25 77 -16
179 -32 228 -35 86 -7 87 -7 87 16 0 38 -66 223 -115 321 -26 51 -77 140 -113
198 -72 115 -77 116 -82 11 -1 -25 -7 -67 -14 -95 l-11 -50 -34 78 c-50 114
-140 245 -217 316 -37 34 -69 59 -71 57 -2 -2 0 -21 6 -42 17 -69 23 -153 16
-230 -7 -82 -12 -84 -39 -14 -26 66 -97 167 -163 232 -56 55 -202 162 -210
154 -3 -2 12 -36 31 -75 78 -154 118 -315 119 -481 0 -137 -17 -221 -68 -317
-20 -38 -33 -59 -31 -48 35 140 39 170 39 285 0 109 -3 136 -27 207 -55 168
-178 306 -466 522 -213 160 -331 278 -388 389 -65 124 -88 272 -62 402 4 25 7
46 5 48 -1 2 -19 -25 -38 -60z m406 -1525 c-7 -2 -19 -2 -25 0 -7 3 -2 5 12 5
14 0 19 -2 13 -5z"/>
<path d="M1631 3489 c-79 -10 -211 -41 -211 -48 1 -3 58 -41 128 -84 110 -69
131 -78 161 -73 18 3 36 7 38 10 3 3 -6 25 -20 50 l-25 45 112 -54 c91 -43
129 -56 211 -68 55 -9 102 -14 104 -11 2 2 -1 20 -7 40 -6 19 -7 34 -2 32 5
-2 40 -31 78 -65 38 -34 97 -75 133 -91 35 -16 93 -48 129 -70 l65 -40 3 51 3
51 30 -45 c16 -24 46 -73 66 -109 20 -36 55 -85 79 -110 60 -64 150 -193 191
-275 87 -171 120 -302 133 -522 5 -90 19 -205 31 -260 21 -98 74 -259 88 -268
12 -7 58 155 77 265 20 120 14 406 -11 519 -90 403 -344 753 -692 952 -262
149 -597 216 -892 178z"/>
<path d="M565 2833 l-25 -38 47 -7 c27 -3 64 -7 83 -7 l35 -1 -30 25 c-16 14
-42 34 -57 45 l-27 21 -26 -38z"/>
<path d="M402 2318 c-6 -40 -14 -95 -17 -122 l-7 -49 30 21 c16 12 75 44 132
71 l103 51 -104 50 c-57 27 -109 50 -115 50 -6 0 -16 -32 -22 -72z"/>
<path d="M2330 2037 c0 -119 82 -321 187 -463 l61 -81 -42 -65 c-61 -95 -78
-154 -83 -283 -3 -103 -2 -116 27 -195 50 -137 70 -211 77 -282 7 -78 13 -81
73 -42 64 42 73 65 72 169 -2 114 12 155 58 177 40 19 60 35 60 47 0 5 -11 25
-25 45 l-24 36 36 15 c84 35 92 67 32 132 -22 24 -39 49 -37 55 3 7 17 16 34
21 39 13 62 34 85 80 l19 37 -58 58 c-62 62 -116 154 -138 236 -18 66 -18 66
9 66 13 0 32 7 43 15 18 14 18 15 0 9 -16 -6 -17 -5 -6 17 10 20 10 22 -1 12
-17 -17 -37 -17 -21 -1 24 24 11 31 -14 7 l-26 -24 5 45 c2 25 8 55 12 66 6
20 2 22 -90 34 -125 15 -192 33 -258 67 -28 15 -55 29 -59 31 -5 2 -8 -16 -8
-41z"/>
<path d="M395 1844 c4 -27 18 -91 32 -143 166 -648 776 -1099 1443 -1067 74 3
150 10 169 14 l34 7 -48 43 c-26 23 -87 64 -134 91 -81 45 -92 49 -196 60
-338 35 -652 207 -845 462 -112 150 -178 282 -222 450 -12 46 -22 85 -22 86
-1 0 -42 8 -92 17 -50 8 -99 18 -108 22 -16 6 -17 2 -11 -42z"/>
<path d="M2843 521 c-91 -42 -118 -165 -49 -230 13 -12 70 -42 127 -65 95 -39
104 -45 107 -71 5 -39 -19 -55 -80 -55 -39 0 -54 5 -73 25 -14 13 -25 31 -25
40 0 12 -12 15 -55 15 -60 0 -61 -2 -45 -62 12 -43 63 -91 116 -108 50 -17
164 -8 205 16 53 31 74 68 74 129 0 77 -36 111 -167 161 -98 36 -124 57 -112
89 9 23 37 35 81 35 46 0 80 -22 85 -53 3 -19 10 -22 57 -25 l54 -3 -6 46 c-6
56 -52 110 -107 125 -56 16 -141 11 -187 -9z"/>
<path d="M3319 530 c-68 -20 -109 -75 -109 -145 0 -77 42 -115 188 -170 77
-29 100 -52 83 -84 -29 -53 -160 -36 -175 24 -6 23 -11 25 -62 25 l-56 0 7
-33 c22 -100 87 -146 210 -147 110 0 195 66 195 152 0 79 -36 115 -165 162
-106 39 -115 46 -115 77 0 35 24 49 80 49 44 0 90 -33 90 -65 0 -13 10 -15 53
-13 l52 3 -3 35 c-7 86 -81 141 -187 139 -33 0 -72 -4 -86 -9z"/>
<path d="M0 270 l0 -260 55 0 55 0 0 105 0 105 90 0 90 0 0 -105 0 -105 55 0
55 0 0 260 0 260 -55 0 -55 0 0 -105 0 -105 -90 0 -90 0 0 105 0 105 -55 0
-55 0 0 -260z"/>
<path d="M490 343 c1 -195 8 -242 47 -285 67 -76 249 -76 316 0 39 43 46 90
47 285 l0 187 -54 0 -55 0 -3 -196 c-3 -192 -3 -196 -27 -215 -31 -25 -101
-25 -132 0 -24 19 -24 23 -27 215 l-3 196 -55 0 -54 0 0 -187z"/>
<path d="M990 270 l0 -260 55 0 54 0 3 153 3 152 93 -153 94 -152 49 0 49 0 0
260 0 260 -55 0 -54 0 -3 -152 -3 -152 -93 152 -94 152 -49 0 -49 0 0 -260z"/>
<path d="M1440 480 l0 -50 75 0 75 0 0 -210 0 -210 55 0 55 0 0 210 0 210 70
0 70 0 0 50 0 50 -200 0 -200 0 0 -50z"/>
<path d="M1890 270 l0 -260 55 0 55 0 0 95 0 95 38 0 c36 0 38 -1 90 -95 l53
-95 54 0 c70 0 70 8 7 119 l-48 83 32 32 c79 79 63 225 -29 267 -34 15 -66 19
-174 19 l-133 0 0 -260z m258 148 c7 -7 12 -30 12 -53 0 -23 -5 -46 -12 -53
-7 -7 -40 -12 -80 -12 l-68 0 0 65 0 65 68 0 c40 0 73 -5 80 -12z"/>
<path d="M2506 499 c-14 -71 -16 -69 94 -69 l100 0 0 50 0 50 -94 0 -93 0 -7
-31z"/>
<path d="M2472 303 c-5 -10 -15 -36 -22 -58 -7 -22 -30 -78 -51 -124 -22 -46
-39 -90 -39 -97 0 -11 33 -14 170 -14 l170 0 0 50 0 50 -115 0 -115 0 0 55 0
54 98 3 97 3 0 45 0 45 -92 3 c-80 2 -93 0 -101 -15z"/>
</g>
</svg>
