<svg xmlns="http://www.w3.org/2000/svg" viewBox="0 0 153.55 163.86"><defs><style>.cls-1{fill:#c3762a;}.cls-2{fill:#f5a81d;}.cls-3{fill:#a06127;}.cls-4{fill:#f18f20;}.cls-5{fill:#fff;}</style></defs><title>Asset 5</title><g id="Layer_2" data-name="Layer 2"><g id="Layer_1-2" data-name="Layer 1"><path class="cls-1" d="M120.59,68l-8-35.21a112,112,0,0,0-13-2.68L76.78,44,54.06,30.07A112.39,112.39,0,0,0,41,32.75L33,68H0l52,80.8,16.66-25.69,8.08,5.09h0l8.08-5.09,16.66,25.69,52-80.8Z"/><path class="cls-2" d="M153.55,68,140.78,12.15s-10.8-4-12-4.3l-16.2,24.9c3.58,15.93,3.57,15.65,8,35.21Z"/><path class="cls-1" d="M112.54,32.75l16.2-24.9S106.64,0,76.78,0V44L99.5,30.08a113.21,113.21,0,0,1,13,2.67"/><polygon class="cls-3" points="76.78 163.85 101.51 148.77 84.87 123.06 76.78 128.17 68.69 123.06 52.03 148.77 76.77 163.85 76.77 163.86 76.78 163.86 76.78 163.86 76.78 163.85"/><path class="cls-2" d="M0,68,12.77,12.15s10.8-4,12-4.3L41,32.75C37.43,48.68,37.43,48.4,33,68Z"/><path class="cls-4" d="M41,32.75,24.81,7.85S46.91,0,76.78,0V44L54.06,30.08A113.16,113.16,0,0,0,41,32.75"/><path class="cls-5" d="M92.07,112a70.5,70.5,0,0,0-15.3-1.47A70.23,70.23,0,0,0,61.48,112l7.21,11,8.08,5.09h0l8.09-5.09Z"/><path class="cls-5" d="M112.55,32.77a112.76,112.76,0,0,0-13-2.67L76.79,44h0L54.06,30.1A113.16,113.16,0,0,0,41,32.77C37.43,48.71,37.43,48.42,33,68c24.14,37,26.38,40.87,26.38,40.87s5.76-1.91,17.44-1.91,17.44,1.91,17.44,1.91S96.47,105,120.61,68c-4.48-19.56-4.48-19.27-8.06-35.21"/><path class="cls-1" d="M107.6,56a68.17,68.17,0,0,1-21,6.92c-1.49.86,4.07,29.35,3,30.47a103,103,0,0,0-12.82-.88A102.48,102.48,0,0,0,64,93.43c-1.09-1.12,4.46-29.61,3-30.47A68.17,68.17,0,0,1,46,56c-2-.62-3.38,2-2.25,3.75l4.84,7.37c1.13,1.72,4,1.79,6,1.14,0,0,8.89-2.13,10.35-2.09,1.74,0-5.66,27.8-5.35,29.56s6.77,1.72,4.57,1c-.32-.11-1.05-1.36,0-1.92s9.33,5.37,10.86,7.26l.66,2.52a1.53,1.53,0,0,0,1.18,1.15h0A1.53,1.53,0,0,0,78,104.59l.66-2.52c1.52-1.89,9.83-7.82,10.85-7.26s.32,1.81,0,1.92c-2.21.76,4.25.8,4.56-1S87,66.21,88.7,66.21c1.47,0,10.35,2.09,10.35,2.09,2,.65,4.83.58,6-1.14l4.84-7.37c1.13-1.71-.25-4.37-2.25-3.75"/></g></g></svg>