<?xml version="1.0" standalone="no"?>
<!DOCTYPE svg PUBLIC "-//W3C//DTD SVG 20010904//EN"
 "http://www.w3.org/TR/2001/REC-SVG-20010904/DTD/svg10.dtd">
<svg version="1.0" xmlns="http://www.w3.org/2000/svg"
 width="920.000000pt" height="401.000000pt" viewBox="0 0 920.000000 401.000000"
 preserveAspectRatio="xMidYMid meet">

<g transform="translate(0.000000,401.000000) scale(0.100000,-0.100000)"
fill="#000000" stroke="none">
<path d="M5420 3998 c497 -216 871 -564 1105 -1026 175 -348 256 -747 225
-1117 -6 -77 -22 -196 -35 -264 -14 -69 -22 -127 -20 -130 3 -2 5 -2 5 0 0 2
11 60 25 129 154 784 -128 1578 -746 2092 -37 31 -119 90 -183 133 -120 79
-349 196 -382 194 -15 0 -14 -3 6 -11z"/>
<path d="M3710 3970 c-8 -5 -10 -10 -5 -10 6 0 17 5 25 10 8 5 11 10 5 10 -5
0 -17 -5 -25 -10z"/>
<path d="M930 3719 c-7 -11 -10 -23 -7 -25 2 -2 9 7 15 21 14 30 7 33 -8 4z"/>
<path d="M892 3635 c-17 -37 -14 -45 4 -12 9 16 14 31 11 33 -2 2 -9 -7 -15
-21z"/>
<path d="M862 3565 c-17 -37 -14 -45 4 -12 9 16 14 31 11 33 -2 2 -9 -7 -15
-21z"/>
<path d="M826 3475 c-9 -26 -7 -32 5 -12 6 10 9 21 6 23 -2 3 -7 -2 -11 -11z"/>
<path d="M801 3409 c-6 -18 -9 -34 -7 -36 2 -2 9 10 15 28 6 18 9 34 7 36 -2
2 -9 -10 -15 -28z"/>
<path d="M761 3299 c-12 -35 -21 -68 -20 -73 0 -6 11 20 25 58 13 38 22 71 20
73 -2 2 -13 -24 -25 -58z"/>
<path d="M4415 3329 c-330 -51 -636 -221 -834 -463 -212 -259 -311 -534 -311
-863 0 -363 134 -687 390 -943 110 -111 263 -217 396 -275 49 -22 91 -40 93
-41 3 -3 -30 -202 -89 -539 -16 -94 -30 -178 -30 -187 0 -17 33 -18 555 -18
l555 0 -5 23 c-6 28 -103 643 -107 680 -3 26 2 29 79 61 414 167 714 530 810
979 26 118 25 410 -1 527 -117 532 -498 918 -1028 1041 -105 25 -367 35 -473
18z"/>
<path d="M726 3184 c-4 -14 -5 -28 -3 -31 3 -2 8 8 11 23 4 14 5 28 3 31 -3 2
-8 -8 -11 -23z"/>
<path d="M691 3063 c-243 -903 -164 -1880 223 -2733 72 -159 159 -323 174
-328 6 -2 -9 34 -35 80 -156 282 -297 651 -377 988 -158 660 -149 1354 24
1989 12 40 19 76 17 78 -3 2 -14 -31 -26 -74z"/>
<path d="M6662 1378 c-11 -40 -19 -74 -17 -76 2 -2 13 28 25 68 12 40 20 74
17 76 -2 2 -13 -28 -25 -68z"/>
<path d="M6596 1195 c-9 -26 -7 -32 5 -12 6 10 9 21 6 23 -2 3 -7 -2 -11 -11z"/>
<path d="M6572 1135 c-17 -37 -14 -45 4 -12 9 16 14 31 11 33 -2 2 -9 -7 -15
-21z"/>
<path d="M6490 970 c-6 -11 -8 -20 -6 -20 3 0 10 9 16 20 6 11 8 20 6 20 -3 0
-10 -9 -16 -20z"/>
<path d="M5688 144 c-8 -7 72 -144 84 -144 9 0 -7 32 -62 122 -9 16 -19 25
-22 22z"/>
</g>
</svg>
