<?xml version="1.0" standalone="no"?>
<!DOCTYPE svg PUBLIC "-//W3C//DTD SVG 20010904//EN"
 "http://www.w3.org/TR/2001/REC-SVG-20010904/DTD/svg10.dtd">
<svg version="1.0" xmlns="http://www.w3.org/2000/svg"
 width="225.000000pt" height="225.000000pt" viewBox="0 0 225.000000 225.000000"
 preserveAspectRatio="xMidYMid meet">

<g transform="translate(0.000000,225.000000) scale(0.100000,-0.100000)"
fill="#000000" stroke="none">
<path d="M1075 2213 c-211 -11 -417 -79 -589 -196 -32 -22 -92 -72 -134 -111
-457 -432 -468 -1147 -23 -1586 89 -88 209 -177 221 -163 4 4 22 110 40 235
l33 226 -30 39 c-48 60 -89 142 -115 223 -18 60 -23 97 -22 190 0 102 4 125
30 201 73 208 227 357 442 427 106 34 273 35 377 2 218 -69 376 -219 447 -426
70 -203 32 -440 -97 -609 l-38 -49 33 -226 c18 -124 36 -230 39 -237 4 -7 28
3 70 32 212 144 376 368 445 608 148 512 -93 1060 -572 1301 -166 84 -373 128
-557 119z"/>
<path d="M1016 1434 c-102 -32 -190 -114 -226 -210 -27 -74 -27 -184 1 -258
25 -67 92 -144 153 -177 26 -13 46 -31 46 -40 0 -9 -29 -169 -65 -355 -36
-187 -65 -345 -65 -351 0 -10 59 -13 260 -13 188 0 260 3 260 11 0 7 -29 172
-65 367 -36 195 -65 355 -63 356 2 2 24 14 50 29 190 109 228 376 78 540 -67
73 -141 108 -239 113 -51 3 -92 -1 -125 -12z"/>
</g>
</svg>
