<?xml version="1.0" standalone="no"?>
<!DOCTYPE svg PUBLIC "-//W3C//DTD SVG 20010904//EN"
 "http://www.w3.org/TR/2001/REC-SVG-20010904/DTD/svg10.dtd">
<svg version="1.0" xmlns="http://www.w3.org/2000/svg"
 width="840.000000pt" height="518.000000pt" viewBox="0 0 840.000000 518.000000"
 preserveAspectRatio="xMidYMid meet">

<g transform="translate(0.000000,518.000000) scale(0.100000,-0.100000)"
fill="#000000" stroke="none">
<path d="M4048 4864 c-176 -42 -336 -191 -388 -362 -24 -78 -27 -221 -5 -301
43 -164 169 -300 326 -354 l59 -20 0 -173 0 -174 -514 0 c-560 0 -624 -5 -755
-57 -311 -124 -511 -401 -537 -743 -7 -87 -8 -91 -33 -96 -143 -32 -247 -88
-351 -193 -94 -95 -142 -174 -181 -301 -20 -63 -24 -96 -23 -205 0 -113 4
-140 27 -210 37 -111 90 -198 173 -281 80 -81 187 -148 293 -184 67 -23 71
-26 71 -55 0 -49 37 -190 69 -259 110 -242 332 -418 596 -471 71 -14 215 -15
1335 -13 l1255 3 75 23 c41 13 115 44 165 70 74 38 108 64 190 146 80 80 110
118 144 184 54 104 77 174 93 271 l12 77 87 28 c88 28 195 90 257 149 82 78
158 209 194 334 19 65 22 102 22 223 0 130 -3 153 -27 225 -72 217 -243 374
-471 431 l-63 16 -6 101 c-12 221 -99 402 -265 558 -112 105 -209 159 -368
206 -52 15 -123 18 -626 21 l-568 3 0 172 0 172 73 33 c100 45 177 109 236
198 63 94 91 181 91 283 0 149 -53 276 -159 382 -133 133 -323 187 -503 143z
m283 -290 c172 -94 187 -353 26 -458 -64 -41 -132 -52 -202 -32 -167 49 -254
182 -212 327 50 170 232 247 388 163z m1130 -1378 c214 -46 384 -218 425 -433
11 -61 14 -212 14 -799 0 -637 -2 -724 -15 -724 -11 0 -15 -11 -15 -37 -1
-173 -126 -371 -288 -456 -133 -70 -66 -67 -1397 -67 -1043 0 -1209 2 -1260
15 -197 50 -339 189 -402 391 -17 55 -18 111 -18 859 0 748 1 804 18 860 62
201 218 346 417 389 97 21 2423 22 2521 2z m-3256 -1705 c-12 -12 -121 56
-170 105 -128 131 -159 317 -79 482 32 66 149 189 209 220 l40 20 3 -411 c1
-225 0 -413 -3 -416z m4028 791 c57 -31 127 -104 156 -166 55 -112 66 -314 23
-409 -30 -67 -113 -151 -185 -187 -33 -16 -66 -30 -74 -30 -11 0 -13 75 -13
416 l0 415 23 -6 c12 -4 44 -19 70 -33z"/>
<path d="M3100 2631 c-113 -37 -208 -120 -261 -226 -31 -64 -34 -77 -34 -165
0 -86 3 -101 32 -163 40 -83 115 -160 198 -202 55 -28 68 -30 165 -30 98 0
110 2 171 32 84 41 160 121 202 210 27 60 31 78 31 153 0 75 -4 93 -31 153
-42 89 -118 169 -201 209 -57 28 -77 33 -156 35 -50 1 -102 -1 -116 -6z m189
-287 c41 -34 58 -91 42 -143 -17 -59 -61 -91 -122 -91 -28 0 -64 7 -80 16 -54
28 -74 113 -43 180 21 45 56 63 121 64 41 0 58 -5 82 -26z"/>
<path d="M5043 2621 c-159 -59 -262 -195 -271 -357 -9 -169 78 -314 237 -391
50 -25 67 -28 161 -28 99 0 110 2 171 32 158 78 259 262 230 421 -25 131 -120
255 -238 310 -78 35 -213 42 -290 13z m216 -277 c39 -33 56 -90 41 -143 -15
-58 -59 -91 -121 -91 -90 0 -139 46 -139 130 0 85 47 129 137 130 41 0 58 -5
82 -26z"/>
<path d="M3765 1420 c-67 -27 -97 -132 -55 -198 38 -61 48 -62 474 -62 248 0
395 4 413 11 42 16 72 48 84 91 13 51 -15 119 -63 148 -32 19 -49 20 -433 19
-220 0 -409 -4 -420 -9z"/>
</g>
</svg>
