<?xml version="1.0" standalone="no"?>
<!DOCTYPE svg PUBLIC "-//W3C//DTD SVG 20010904//EN"
 "http://www.w3.org/TR/2001/REC-SVG-20010904/DTD/svg10.dtd">
<svg version="1.0" xmlns="http://www.w3.org/2000/svg"
 width="171.000000pt" height="171.000000pt" viewBox="0 0 171.000000 171.000000"
 preserveAspectRatio="xMidYMid meet">

<g transform="translate(0.000000,171.000000) scale(0.100000,-0.100000)"
fill="" stroke="none">
<path d="M750 1015 l0 -685 110 0 110 0 0 685 0 685 -110 0 -110 0 0 -685z"/>
<path d="M364 1570 c-58 -78 -119 -183 -151 -265 l-28 -70 -3 -398 c-3 -452
-1 -471 67 -548 37 -42 146 -117 156 -107 3 3 4 328 3 724 l-3 719 -41 -55z"/>
<path d="M1310 901 c0 -397 3 -721 6 -721 18 0 126 75 153 106 66 75 65 70 69
495 3 437 0 465 -67 599 -39 78 -132 223 -151 235 -7 4 -10 -229 -10 -714z"/>
<path d="M619 1405 c-50 -18 -121 -55 -141 -73 -17 -14 -18 -55 -18 -599 l0
-583 67 -43 c38 -24 89 -56 116 -71 l47 -28 0 706 c0 790 7 720 -71 691z"/>
<path d="M1030 716 c0 -389 3 -705 8 -703 4 2 53 32 110 67 l102 62 -2 597 -3
596 -75 37 c-41 21 -90 41 -107 44 l-33 7 0 -707z"/>
</g>
</svg>
