<?xml version="1.0" standalone="no"?>
<!DOCTYPE svg PUBLIC "-//W3C//DTD SVG 20010904//EN"
 "http://www.w3.org/TR/2001/REC-SVG-20010904/DTD/svg10.dtd">
<svg version="1.0" xmlns="http://www.w3.org/2000/svg"
 width="225.000000pt" height="225.000000pt" viewBox="0 0 225.000000 225.000000"
 preserveAspectRatio="xMidYMid meet">

<g transform="translate(0.000000,225.000000) scale(0.100000,-0.100000)"
fill="#4f4f4f" stroke="none">
<path d="M75 2148 c-3 -7 -4 -357 -3 -778 l3 -765 243 -3 242 -2 0 375 c0 338
5 409 23 360 4 -8 26 -45 50 -82 24 -37 122 -192 217 -343 95 -151 180 -283
188 -292 12 -15 32 -18 104 -18 l89 0 -54 68 c-29 37 -72 92 -94 122 -23 30
-61 80 -84 110 -139 181 -139 180 -139 219 0 26 7 44 23 59 23 21 31 22 253
22 269 0 237 13 340 -137 37 -54 71 -102 76 -107 4 -6 8 263 8 597 l0 607
-240 0 -240 0 -2 -372 c-2 -236 -7 -372 -13 -374 -5 -2 -53 65 -105 148 -125
198 -249 397 -300 480 -22 37 -51 79 -64 93 l-23 25 -247 0 c-188 0 -248 -3
-251 -12z"/>
<path d="M1057 981 c60 -77 150 -194 201 -260 59 -77 90 -125 86 -133 -5 -7
-49 -65 -99 -129 -49 -64 -132 -171 -183 -238 -51 -66 -98 -123 -103 -127 -29
-17 21 -24 187 -24 140 0 184 3 185 13 0 17 213 292 226 292 5 0 48 -49 93
-110 46 -60 98 -129 117 -152 l34 -43 173 0 c95 0 175 3 178 6 4 3 -81 119
-188 257 -107 139 -194 258 -194 264 0 11 95 139 312 418 l77 100 -176 3
c-156 2 -178 0 -195 -15 -11 -10 -64 -81 -119 -160 -55 -78 -103 -145 -109
-148 -5 -3 -60 68 -122 157 l-114 163 -187 3 -187 2 107 -139z"/>
</g>
</svg>
