<?xml version="1.0" standalone="no"?>
<!DOCTYPE svg PUBLIC "-//W3C//DTD SVG 20010904//EN"
 "http://www.w3.org/TR/2001/REC-SVG-20010904/DTD/svg10.dtd">
<svg version="1.0" xmlns="http://www.w3.org/2000/svg"
 width="330.000000pt" height="323.000000pt" viewBox="0 0 330.000000 323.000000"
 preserveAspectRatio="xMidYMid meet">

<g transform="translate(0.000000,323.000000) scale(0.100000,-0.100000)"
fill="" stroke="none">
<path d="M1396 3210 c-13 -47 -367 -1883 -363 -1886 2 -2 283 -3 623 -2 l620
3 -183 935 c-100 514 -183 941 -185 948 -2 10 -60 13 -256 15 -217 2 -253 0
-256 -13z m349 -629 c80 -36 132 -107 142 -191 9 -79 -12 -137 -73 -197 l-53
-51 44 -229 c25 -125 45 -234 45 -240 0 -10 -47 -13 -201 -13 -189 0 -201 1
-197 18 3 10 25 121 49 247 37 193 41 229 29 233 -33 11 -87 81 -104 135 -38
120 27 251 145 293 50 18 128 16 174 -5z"/>
<path d="M2113 3158 c3 -13 38 -189 77 -393 l72 -370 78 -80 c192 -198 274
-408 274 -700 0 -285 -82 -497 -269 -694 -124 -131 -276 -219 -451 -263 -113
-28 -348 -30 -460 -5 -427 97 -718 453 -741 907 -15 303 78 559 279 763 l69
70 75 385 c41 211 73 386 71 388 -2 3 -50 -12 -107 -32 -497 -173 -899 -610
-1025 -1113 -35 -142 -45 -234 -45 -425 -1 -338 76 -610 243 -864 240 -364
594 -604 1020 -693 118 -25 378 -38 532 -27 283 20 579 127 812 291 105 74
298 263 375 367 200 271 295 557 303 915 4 231 -17 388 -77 570 -153 461 -537
839 -1007 994 -52 17 -96 31 -99 31 -2 0 -2 -10 1 -22z"/>
</g>
</svg>
