<?xml version="1.0" standalone="no"?>
<!DOCTYPE svg PUBLIC "-//W3C//DTD SVG 20010904//EN"
 "http://www.w3.org/TR/2001/REC-SVG-20010904/DTD/svg10.dtd">
<svg version="1.0" xmlns="http://www.w3.org/2000/svg"
 width="920.000000pt" height="648.000000pt" viewBox="0 0 920.000000 648.000000"
 preserveAspectRatio="xMidYMid meet">

<g transform="translate(0.000000,648.000000) scale(0.100000,-0.100000)"
fill="#000000" stroke="none">
<path d="M4350 6470 c-151 -11 -380 -49 -542 -90 -1224 -310 -2156 -1309
-2382 -2550 -38 -210 -50 -347 -50 -580 0 -365 46 -662 155 -997 385 -1187
1421 -2047 2659 -2207 206 -27 610 -28 810 -2 612 79 1156 310 1629 690 579
465 989 1135 1136 1855 54 264 60 336 59 666 0 336 -11 438 -69 700 -181 808
-663 1512 -1350 1974 -453 304 -931 476 -1490 535 -100 11 -443 14 -565 6z
m-1496 -1737 c24 -93 148 -539 261 -938 99 -347 268 -872 334 -1039 l39 -99
34 74 c19 41 196 431 393 867 l360 792 329 -2 330 -3 78 -170 c42 -93 218
-482 391 -863 l315 -694 50 129 c107 273 323 987 522 1723 39 146 73 271 75
278 4 9 103 12 456 12 401 0 450 -2 445 -15 -3 -9 -13 -44 -21 -78 -105 -411
-603 -2074 -781 -2606 -194 -583 -241 -711 -284 -769 -58 -80 -193 -119 -379
-109 -128 7 -187 26 -246 80 -41 38 -60 74 -188 357 -79 173 -282 622 -452
997 -170 376 -312 679 -316 675 -4 -4 -111 -236 -237 -517 -497 -1099 -641
-1416 -664 -1457 -25 -47 -96 -101 -156 -119 -61 -18 -225 -23 -310 -9 -138
22 -199 67 -252 185 -46 101 -405 1184 -495 1490 -42 143 -112 380 -155 527
-228 769 -390 1336 -390 1364 0 2 202 4 449 4 l449 0 16 -67z"/>
</g>
</svg>
